<svg xmlns="http://www.w3.org/2000/svg" xmlns:xlink="http://www.w3.org/1999/xlink" style="fill:none;stroke:none;fill-rule:evenodd;clip-rule:evenodd;stroke-linecap:round;stroke-linejoin:round;stroke-miterlimit:1.5;" version="1.1" viewBox="42.26 101.5 954.24 664.61">
  <style class="text-font-style fontImports" data-font-family="Roboto">
    @import url(https://fonts.googleapis.com/css2?family=Roboto:wght@400;700&amp;amp;display=block);
  </style>
  <g id="items" style="isolation: isolate">
    <g id="blend" style="mix-blend-mode: normal">
      <g id="g-root-cp_0_g-0_1cxdz5515z13bh-fill" data-item-order="-705662" transform="translate(356, 146)">
        <g id="cp_0_g-0_1cxdz5515z13bh-fill-merged" stroke="none" fill="#edf4ff" fill-opacity="1">
          <g>
            <path d="M640 10L550 64 V118L460 172 V226L370 280.003 V334L280 388 V442L190 496 V550L100 604L10 550 V565.609L100 619.609L202 558.109 V504.009L292 450 V396.009L382 341.982 V288.012L472 234 V180.009L562 126.004 V68.4L640 24.715 V10"/>
          </g>
        </g>
        <g id="cp_0_g-0_1cxdz5515z13bh-fill-merged" stroke="none" fill="#edf4ff" fill-opacity="1">
          <g>
            <path d="M550 64L460 10 V64L550 118 V64"/>
          </g>
        </g>
        <g id="cp_0_g-0_1cxdz5515z13bh-fill-merged" stroke="none" fill="#edf4ff" fill-opacity="1">
          <g>
            <path d="M460 172L370 118 V172L460 226 V172"/>
          </g>
        </g>
        <g id="cp_0_g-0_1cxdz5515z13bh-fill-merged" stroke="none" fill="#edf4ff" fill-opacity="1">
          <g>
            <path d="M370 280L280 226 V280L370 334 V280"/>
          </g>
        </g>
        <g id="cp_0_g-0_1cxdz5515z13bh-fill-merged" stroke="none" fill="#edf4ff" fill-opacity="1">
          <g>
            <path d="M280 388L190 334 V388L280 442 V388"/>
          </g>
        </g>
        <g id="cp_0_g-0_1cxdz5515z13bh-fill-merged" stroke="none" fill="#edf4ff" fill-opacity="1">
          <g>
            <path d="M190 496L100 442 V497L190 550 V496"/>
          </g>
        </g>
      </g>
      <g id="g-root-cp_1_g-1_18i6y3t15z10xy-fill" data-item-order="-705648" transform="translate(356, 632)">
        <g id="cp_1_g-1_18i6y3t15z10xy-fill-merged" stroke="none" fill="#edf4ff" fill-opacity="1">
          <g>
            <path d="M100 10L10 64L100 118L190 64L100 10 M29 64L100 22L171 64L100 106L29 64"/>
          </g>
        </g>
      </g>
      <g id="g-root-cp_2_g-2_zmjxux15z11qn-fill" data-item-order="-705644" transform="translate(446, 524)">
        <g id="cp_2_g-2_zmjxux15z11qn-fill-merged" stroke="none" fill="#edf4ff" fill-opacity="1">
          <g>
            <path d="M100 10L10 64L100 118L190 64L100 10 M29 64L100 22L171 64L100 106L29 64"/>
          </g>
        </g>
      </g>
      <g id="g-root-cp_3_g-3_142dfzd15z11q8-fill" data-item-order="-705640" transform="translate(536, 416)">
        <g id="cp_3_g-3_142dfzd15z11q8-fill-merged" stroke="none" fill="#edf4ff" fill-opacity="1">
          <g>
            <path d="M100 10L10 64L100 118L190 64L100 10 M29 64L100 22L171 64L100 106L29 64"/>
          </g>
        </g>
      </g>
      <g id="g-root-cp_4_g-4_v6qfqh15z12ix-fill" data-item-order="-705636" transform="translate(626, 308)">
        <g id="cp_4_g-4_v6qfqh15z12ix-fill-merged" stroke="none" fill="#edf4ff" fill-opacity="1">
          <g>
            <path d="M100 10L10 64L100 118L190 64L100 10 M29 64L100 22L171 64L100 106L29 64"/>
          </g>
        </g>
      </g>
      <g id="g-root-cp_5_g-5_v6qfqh15z12iy-fill" data-item-order="-705632" transform="translate(716, 200)">
        <g id="cp_5_g-5_v6qfqh15z12iy-fill-merged" stroke="none" fill="#edf4ff" fill-opacity="1">
          <g>
            <path d="M100 10L10 64L100 118L190 64L100 10 M29 64L100 22L171 64L100 106L29 64"/>
          </g>
        </g>
      </g>
      <g id="g-root-cp_6_g-6_qqwxm115z13b7-fill" data-item-order="-705628" transform="translate(806, 92)">
        <g id="cp_6_g-6_qqwxm115z13b7-fill-merged" stroke="none" fill="#edf4ff" fill-opacity="1">
          <g>
            <path d="M100 10L10 64L100 118L190 64L100 10 M29 64L100 22L171 64L100 106L29 64"/>
          </g>
        </g>
      </g>
      <g id="g-root-cp_2_text-2_hvweg915z10y4-fill" data-item-order="-705612" transform="translate(170, 530)">
        <g id="cp_2_text-2_hvweg915z10y4-fill-merged" stroke="none" fill="#edf4ff" fill-opacity="1">
          <g>
            <path d="M10 10 H16 V106 H10 V10"/>
          </g>
        </g>
      </g>
      <g id="g-root-cp_3_text-3_dg2wbt15z11qd-fill" data-item-order="-705598" transform="translate(260, 422)">
        <g id="cp_3_text-3_dg2wbt15z11qd-fill-merged" stroke="none" fill="#edf4ff" fill-opacity="1">
          <g>
            <path d="M10 10 H16 V106 H10 V10"/>
          </g>
        </g>
      </g>
      <g id="g-root-cp_1_text-1_4kfw2x15z12j2-fill" data-item-order="-705584" transform="translate(80, 656)">
        <g id="cp_1_text-1_4kfw2x15z12j2-fill-merged" stroke="none" fill="#edf4ff" fill-opacity="1">
          <g>
            <path d="M10 10 H16 V106 H10 V10"/>
          </g>
        </g>
      </g>
      <g id="g-root-cp_4_text-4_4kfw2x15z12j3-fill" data-item-order="-705568" transform="translate(350, 314)">
        <g id="cp_4_text-4_4kfw2x15z12j3-fill-merged" stroke="none" fill="#edf4ff" fill-opacity="1">
          <g>
            <path d="M10 10 H16 V106 H10 V10"/>
          </g>
        </g>
      </g>
      <g id="g-root-cp_5_text-5_4mdyh15z13bc-fill" data-item-order="-705554" transform="translate(440, 206)">
        <g id="cp_5_text-5_4mdyh15z13bc-fill-merged" stroke="none" fill="#edf4ff" fill-opacity="1">
          <g>
            <path d="M10 10 H16 V106 H10 V10"/>
          </g>
        </g>
      </g>
      <g id="g-root-cp_6_text-6_1uqjew915z10qp-fill" data-item-order="-705540" transform="translate(530, 110)">
        <g id="cp_6_text-6_1uqjew915z10qp-fill-merged" stroke="none" fill="#edf4ff" fill-opacity="1">
          <g>
            <path d="M10 10 H16 V82 H10 V10"/>
          </g>
        </g>
      </g>
      <g id="g-root-tx_comparar_18koxm115yzm6b-fill" data-item-order="0" transform="translate(458, 242)">
        <g id="tx_comparar_18koxm115yzm6b-fill-merged" stroke="none" fill="#484848" fill-opacity="1">
          <g>
            <text style="font: 15px Roboto, sans-serif; white-space: pre;" transform="translate(10, 40)" font-size="15px" font-family="Roboto, sans-serif"><tspan x="2" y="-9.4" dominant-baseline="ideographic">Comparar los resultados con </tspan><tspan x="2" y="8.6" dominant-baseline="ideographic">fuentes oficiales como INEC para </tspan><tspan x="2" y="26.6" dominant-baseline="ideographic">asegurar precisión.</tspan></text>
          </g>
        </g>
      </g>
      <g id="g-root-tx_crearvis_4mxvl515yznra-fill" data-item-order="0" transform="translate(548, 146)">
        <g id="tx_crearvis_4mxvl515yznra-fill-merged" stroke="none" fill="#484848" fill-opacity="1">
          <g>
            <text style="font: 15px Roboto, sans-serif; white-space: pre;" transform="translate(10, 28)" font-size="15px" font-family="Roboto, sans-serif"><tspan x="2" y="-0.4" dominant-baseline="ideographic">Crear visualizaciones interactivas </tspan><tspan x="2" y="17.6" dominant-baseline="ideographic">para análisis comparativo.</tspan></text>
          </g>
        </g>
      </g>
      <g id="g-root-tx_4_1qbch0p15yzmyx-fill" data-item-order="0" transform="translate(296, 314)">
        <g id="tx_4_1qbch0p15yzmyx-fill-merged" stroke="none" fill="#484848" fill-opacity="1">
          <g>
            <text style="font: bold 20px Roboto, sans-serif; white-space: pre;" transform="translate(22, 22)" font-weight="bold" font-size="20px" font-family="Roboto, sans-serif"><tspan x="-5.74" y="12" dominant-baseline="ideographic">4</tspan></text>
          </g>
        </g>
      </g>
      <g id="g-root-tx_normaliz_90vyg915yznyn-fill" data-item-order="0" transform="translate(368, 314)">
        <g id="tx_normaliz_90vyg915yznyn-fill-merged" stroke="none" fill="#484848" fill-opacity="1">
          <g>
            <text style="font: bold 20px Roboto, sans-serif; white-space: pre;" transform="translate(10, 22)" font-weight="bold" font-size="20px" font-family="Roboto, sans-serif"><tspan x="2" y="12" dominant-baseline="ideographic">Normalizar Escalas</tspan></text>
          </g>
        </g>
      </g>
      <g id="g-root-ic_rule_magyeh15zdnnm-fill" data-item-order="0" transform="translate(692, 338)"/>
      <g id="g-root-tx_transfor_4l2gbt15yzoqw-fill" data-item-order="0" transform="translate(368, 350)">
        <g id="tx_transfor_4l2gbt15yzoqw-fill-merged" stroke="none" fill="#484848" fill-opacity="1">
          <g>
            <text style="font: 15px Roboto, sans-serif; white-space: pre;" transform="translate(10, 40)" font-size="15px" font-family="Roboto, sans-serif"><tspan x="2" y="-9.4" dominant-baseline="ideographic">Transformar datos a una escala </tspan><tspan x="2" y="8.6" dominant-baseline="ideographic">común de 0–100 y construir </tspan><tspan x="2" y="26.6" dominant-baseline="ideographic">índices.</tspan></text>
          </g>
        </g>
      </g>
      <g id="g-root-ic_wave_18jfzft15yvf2l-fill" data-item-order="0" transform="translate(872, 122)"/>
      <g id="g-root-tx_3_1ltnjmx15yzoqr-fill" data-item-order="0" transform="translate(206, 422)">
        <g id="tx_3_1ltnjmx15yzoqr-fill-merged" stroke="none" fill="#484848" fill-opacity="1">
          <g>
            <text style="font: bold 20px Roboto, sans-serif; white-space: pre;" transform="translate(22, 22)" font-weight="bold" font-size="20px" font-family="Roboto, sans-serif"><tspan x="-5.74" y="12" dominant-baseline="ideographic">3</tspan></text>
          </g>
        </g>
      </g>
      <g id="g-root-tx_depurarv_deu1bd15yzoxt-fill" data-item-order="0" transform="translate(278, 422)">
        <g id="tx_depurarv_deu1bd15yzoxt-fill-merged" stroke="none" fill="#484848" fill-opacity="1">
          <g>
            <text style="font: bold 20px Roboto, sans-serif; white-space: pre;" transform="translate(10, 22)" font-weight="bold" font-size="20px" font-family="Roboto, sans-serif"><tspan x="2" y="12" dominant-baseline="ideographic">Depurar Variables</tspan></text>
          </g>
        </g>
      </g>
      <g id="g-root-ic_view_zp1u7d15z9ibk-fill" data-item-order="0" transform="translate(602, 446)"/>
      <g id="g-root-tx_aplicarf_4001515yzncy-fill" data-item-order="0" transform="translate(278, 458)">
        <g id="tx_aplicarf_4001515yzncy-fill-merged" stroke="none" fill="#484848" fill-opacity="1">
          <g>
            <text style="font: 15px Roboto, sans-serif; white-space: pre;" transform="translate(10, 40)" font-size="15px" font-family="Roboto, sans-serif"><tspan x="2" y="-9.4" dominant-baseline="ideographic">Aplicar filtros de calidad, eliminar </tspan><tspan x="2" y="8.6" dominant-baseline="ideographic">outliers y estandarizar la </tspan><tspan x="2" y="26.6" dominant-baseline="ideographic">codificación de datos.</tspan></text>
          </g>
        </g>
      </g>
      <g id="g-root-tx_generard_hyedyh15yzm6d-fill" data-item-order="0" transform="translate(548, 110)">
        <g id="tx_generard_hyedyh15yzm6d-fill-merged" stroke="none" fill="#484848" fill-opacity="1">
          <g>
            <text style="font: bold 20px Roboto, sans-serif; white-space: pre;" transform="translate(10, 22)" font-weight="bold" font-size="20px" font-family="Roboto, sans-serif"><tspan x="2" y="12" dominant-baseline="ideographic">Generar Dashboards</tspan></text>
          </g>
        </g>
      </g>
      <g id="g-root-ic_chec_924tgp15zdpn1-fill" data-item-order="0" transform="translate(782, 230)"/>
      <g id="g-root-tx_2_qqajop15yzncw-fill" data-item-order="0" transform="translate(116, 530)">
        <g id="tx_2_qqajop15yzncw-fill-merged" stroke="none" fill="#484848" fill-opacity="1">
          <g>
            <text style="font: bold 20px Roboto, sans-serif; white-space: pre;" transform="translate(22, 22)" font-weight="bold" font-size="20px" font-family="Roboto, sans-serif"><tspan x="-5.74" y="12" dominant-baseline="ideographic">2</tspan></text>
          </g>
        </g>
      </g>
      <g id="g-root-tx_integrar_1lselgp15yzmkm-fill" data-item-order="0" transform="translate(188, 530)">
        <g id="tx_integrar_1lselgp15yzmkm-fill-merged" stroke="none" fill="#484848" fill-opacity="1">
          <g>
            <text style="font: bold 20px Roboto, sans-serif; white-space: pre;" transform="translate(10, 22)" font-weight="bold" font-size="20px" font-family="Roboto, sans-serif"><tspan x="2" y="12" dominant-baseline="ideographic">Integrar Bases</tspan></text>
          </g>
        </g>
      </g>
      <g id="g-root-ic_data_1uo1ijt15z5amd-fill" data-item-order="0" transform="translate(512, 554)"/>
      <g id="g-root-tx_unificar_18gy33d15yzo5j-fill" data-item-order="0" transform="translate(188, 566)">
        <g id="tx_unificar_18gy33d15yzo5j-fill-merged" stroke="none" fill="#484848" fill-opacity="1">
          <g>
            <text style="font: 15px Roboto, sans-serif; white-space: pre;" transform="translate(10, 40)" font-size="15px" font-family="Roboto, sans-serif"><tspan x="2" y="-9.4" dominant-baseline="ideographic">Unificar datos de V-Dem, </tspan><tspan x="2" y="8.6" dominant-baseline="ideographic">Latinobarómetro y ENEMDU en una </tspan><tspan x="2" y="26.6" dominant-baseline="ideographic">base de datos cohesiva.</tspan></text>
          </g>
        </g>
      </g>
      <g id="g-root-tx_6_1qd7wa115yzlzb-fill" data-item-order="0" transform="translate(476, 110)">
        <g id="tx_6_1qd7wa115yzlzb-fill-merged" stroke="none" fill="#484848" fill-opacity="1">
          <g>
            <text style="font: bold 20px Roboto, sans-serif; white-space: pre;" transform="translate(22, 22)" font-weight="bold" font-size="20px" font-family="Roboto, sans-serif"><tspan x="-5.74" y="12" dominant-baseline="ideographic">6</tspan></text>
          </g>
        </g>
      </g>
      <g id="g-root-tx_1_mccgtl15yzmdq-fill" data-item-order="0" transform="translate(26, 656)">
        <g id="tx_1_mccgtl15yzmdq-fill-merged" stroke="none" fill="#484848" fill-opacity="1">
          <g>
            <text style="font: bold 20px Roboto, sans-serif; white-space: pre;" transform="translate(22, 22)" font-weight="bold" font-size="20px" font-family="Roboto, sans-serif"><tspan x="-5.74" y="12" dominant-baseline="ideographic">1</tspan></text>
          </g>
        </g>
      </g>
      <g id="g-root-tx_validarr_1czvynd15yzoju-fill" data-item-order="0" transform="translate(458, 206)">
        <g id="tx_validarr_1czvynd15yzoju-fill-merged" stroke="none" fill="#484848" fill-opacity="1">
          <g>
            <text style="font: bold 20px Roboto, sans-serif; white-space: pre;" transform="translate(10, 22)" font-weight="bold" font-size="20px" font-family="Roboto, sans-serif"><tspan x="2" y="12" dominant-baseline="ideographic">Validar Resultados</tspan></text>
          </g>
        </g>
      </g>
      <g id="g-root-tx_definira_18iticp15yzn5w-fill" data-item-order="0" transform="translate(98, 656)">
        <g id="tx_definira_18iticp15yzn5w-fill-merged" stroke="none" fill="#484848" fill-opacity="1">
          <g>
            <text style="font: bold 20px Roboto, sans-serif; white-space: pre;" transform="translate(10, 22)" font-weight="bold" font-size="20px" font-family="Roboto, sans-serif"><tspan x="2" y="12" dominant-baseline="ideographic">Definir Alcance</tspan></text>
          </g>
        </g>
      </g>
      <g id="g-root-ic_2_1448v8p15z10qr-fill" data-item-order="0" transform="translate(422, 662)"/>
      <g id="g-root-tx_5_mdlezt15yzojw-fill" data-item-order="0" transform="translate(386, 206)">
        <g id="tx_5_mdlezt15yzojw-fill-merged" stroke="none" fill="#484848" fill-opacity="1">
          <g>
            <text style="font: bold 20px Roboto, sans-serif; white-space: pre;" transform="translate(22, 22)" font-weight="bold" font-size="20px" font-family="Roboto, sans-serif"><tspan x="-5.74" y="12" dominant-baseline="ideographic">5</tspan></text>
          </g>
        </g>
      </g>
      <g id="g-root-tx_establec_zn6i3t15yznyl-fill" data-item-order="0" transform="translate(98, 692)">
        <g id="tx_establec_zn6i3t15yznyl-fill-merged" stroke="none" fill="#484848" fill-opacity="1">
          <g>
            <text style="font: 15px Roboto, sans-serif; white-space: pre;" transform="translate(10, 40)" font-size="15px" font-family="Roboto, sans-serif"><tspan x="2" y="-9.4" dominant-baseline="ideographic">Establecer los límites del análisis, </tspan><tspan x="2" y="8.6" dominant-baseline="ideographic">incluyendo países, período de </tspan><tspan x="2" y="26.6" dominant-baseline="ideographic">tiempo e indicadores clave.</tspan></text>
          </g>
        </g>
      </g>
      <g id="g-root-cp_0_g-0_1cxdz5515z13bh-stroke" data-item-order="-705662" transform="translate(356, 146)">
        <g id="cp_0_g-0_1cxdz5515z13bh-stroke" fill="none" stroke-linecap="round" stroke-linejoin="round" stroke-miterlimit="4" stroke="#484848" stroke-width="1" stroke-opacity="1">
          <g>
            <path d="M 640 10L 550 64L 550 118L 460 172L 460 226L 370 280.0029L 370 334L 280 388L 280 442L 190 496L 190 550L 100 604L 10 550L 10 565.6089L 100 619.6089L 202 558.1089L 202 504.009L 292 450L 292 396.009L 382 341.9815L 382 288.0119L 472 233.9996L 472 180.0089L 562 126.0035L 562 68.4L 640 24.7151L 640 10Z"/>
          </g>
        </g>
        <g id="cp_0_g-0_1cxdz5515z13bh-stroke" fill="none" stroke-linecap="round" stroke-linejoin="round" stroke-miterlimit="4" stroke="#484848" stroke-width="1" stroke-opacity="1">
          <g>
            <path d="M 550 64L 460 10L 460 64L 550 118L 550 64Z"/>
          </g>
        </g>
        <g id="cp_0_g-0_1cxdz5515z13bh-stroke" fill="none" stroke-linecap="round" stroke-linejoin="round" stroke-miterlimit="4" stroke="#484848" stroke-width="1" stroke-opacity="1">
          <g>
            <path d="M 460 172L 370 118L 370 172L 460 226L 460 172Z"/>
          </g>
        </g>
        <g id="cp_0_g-0_1cxdz5515z13bh-stroke" fill="none" stroke-linecap="round" stroke-linejoin="round" stroke-miterlimit="4" stroke="#484848" stroke-width="1" stroke-opacity="1">
          <g>
            <path d="M 370 280L 280 226L 280 280L 370 334L 370 280Z"/>
          </g>
        </g>
        <g id="cp_0_g-0_1cxdz5515z13bh-stroke" fill="none" stroke-linecap="round" stroke-linejoin="round" stroke-miterlimit="4" stroke="#484848" stroke-width="1" stroke-opacity="1">
          <g>
            <path d="M 280 388L 190 334L 190 388L 280 442L 280 388Z"/>
          </g>
        </g>
        <g id="cp_0_g-0_1cxdz5515z13bh-stroke" fill="none" stroke-linecap="round" stroke-linejoin="round" stroke-miterlimit="4" stroke="#484848" stroke-width="1" stroke-opacity="1">
          <g>
            <path d="M 190 496L 100 442L 100 497L 190 550L 190 496Z"/>
          </g>
        </g>
      </g>
      <g id="g-root-cp_1_g-1_18i6y3t15z10xy-stroke" data-item-order="-705648" transform="translate(356, 632)">
        <g id="cp_1_g-1_18i6y3t15z10xy-stroke" fill="none" stroke-linecap="round" stroke-linejoin="round" stroke-miterlimit="4" stroke="#484848" stroke-width="1" stroke-opacity="1">
          <g>
            <path d="M 100 10L 10 64L 100 118L 190 64L 100 10ZM 29 64L 100 22L 171 64L 100 106L 29 64Z"/>
          </g>
        </g>
      </g>
      <g id="g-root-cp_2_g-2_zmjxux15z11qn-stroke" data-item-order="-705644" transform="translate(446, 524)">
        <g id="cp_2_g-2_zmjxux15z11qn-stroke" fill="none" stroke-linecap="round" stroke-linejoin="round" stroke-miterlimit="4" stroke="#484848" stroke-width="1" stroke-opacity="1">
          <g>
            <path d="M 100 10L 10 64L 100 118L 190 64L 100 10ZM 29 64L 100 22L 171 64L 100 106L 29 64Z"/>
          </g>
        </g>
      </g>
      <g id="g-root-cp_3_g-3_142dfzd15z11q8-stroke" data-item-order="-705640" transform="translate(536, 416)">
        <g id="cp_3_g-3_142dfzd15z11q8-stroke" fill="none" stroke-linecap="round" stroke-linejoin="round" stroke-miterlimit="4" stroke="#484848" stroke-width="1" stroke-opacity="1">
          <g>
            <path d="M 100 10L 10 64L 100 118L 190 64L 100 10ZM 29 64L 100 22L 171 64L 100 106L 29 64Z"/>
          </g>
        </g>
      </g>
      <g id="g-root-cp_4_g-4_v6qfqh15z12ix-stroke" data-item-order="-705636" transform="translate(626, 308)">
        <g id="cp_4_g-4_v6qfqh15z12ix-stroke" fill="none" stroke-linecap="round" stroke-linejoin="round" stroke-miterlimit="4" stroke="#484848" stroke-width="1" stroke-opacity="1">
          <g>
            <path d="M 100 10L 10 64L 100 118L 190 64L 100 10ZM 29 64L 100 22L 171 64L 100 106L 29 64Z"/>
          </g>
        </g>
      </g>
      <g id="g-root-cp_5_g-5_v6qfqh15z12iy-stroke" data-item-order="-705632" transform="translate(716, 200)">
        <g id="cp_5_g-5_v6qfqh15z12iy-stroke" fill="none" stroke-linecap="round" stroke-linejoin="round" stroke-miterlimit="4" stroke="#484848" stroke-width="1" stroke-opacity="1">
          <g>
            <path d="M 100 10L 10 64L 100 118L 190 64L 100 10ZM 29 64L 100 22L 171 64L 100 106L 29 64Z"/>
          </g>
        </g>
      </g>
      <g id="g-root-cp_6_g-6_qqwxm115z13b7-stroke" data-item-order="-705628" transform="translate(806, 92)">
        <g id="cp_6_g-6_qqwxm115z13b7-stroke" fill="none" stroke-linecap="round" stroke-linejoin="round" stroke-miterlimit="4" stroke="#484848" stroke-width="1" stroke-opacity="1">
          <g>
            <path d="M 100 10L 10 64L 100 118L 190 64L 100 10ZM 29 64L 100 22L 171 64L 100 106L 29 64Z"/>
          </g>
        </g>
      </g>
      <g id="g-root-cp_2_text-2_hvweg915z10y4-stroke" data-item-order="-705612" transform="translate(170, 530)">
        <g id="cp_2_text-2_hvweg915z10y4-stroke" fill="none" stroke-linecap="round" stroke-linejoin="round" stroke-miterlimit="4" stroke="#484848" stroke-width="1" stroke-opacity="1">
          <g>
            <path d="M 10 10L 16 10L 16 106L 10 106Z"/>
          </g>
        </g>
      </g>
      <g id="g-root-cp_3_text-3_dg2wbt15z11qd-stroke" data-item-order="-705598" transform="translate(260, 422)">
        <g id="cp_3_text-3_dg2wbt15z11qd-stroke" fill="none" stroke-linecap="round" stroke-linejoin="round" stroke-miterlimit="4" stroke="#484848" stroke-width="1" stroke-opacity="1">
          <g>
            <path d="M 10 10L 16 10L 16 106L 10 106Z"/>
          </g>
        </g>
      </g>
      <g id="g-root-cp_1_text-1_4kfw2x15z12j2-stroke" data-item-order="-705584" transform="translate(80, 656)">
        <g id="cp_1_text-1_4kfw2x15z12j2-stroke" fill="none" stroke-linecap="round" stroke-linejoin="round" stroke-miterlimit="4" stroke="#484848" stroke-width="1" stroke-opacity="1">
          <g>
            <path d="M 10 10L 16 10L 16 106L 10 106Z"/>
          </g>
        </g>
      </g>
      <g id="g-root-cp_4_text-4_4kfw2x15z12j3-stroke" data-item-order="-705568" transform="translate(350, 314)">
        <g id="cp_4_text-4_4kfw2x15z12j3-stroke" fill="none" stroke-linecap="round" stroke-linejoin="round" stroke-miterlimit="4" stroke="#484848" stroke-width="1" stroke-opacity="1">
          <g>
            <path d="M 10 10L 16 10L 16 106L 10 106Z"/>
          </g>
        </g>
      </g>
      <g id="g-root-cp_5_text-5_4mdyh15z13bc-stroke" data-item-order="-705554" transform="translate(440, 206)">
        <g id="cp_5_text-5_4mdyh15z13bc-stroke" fill="none" stroke-linecap="round" stroke-linejoin="round" stroke-miterlimit="4" stroke="#484848" stroke-width="1" stroke-opacity="1">
          <g>
            <path d="M 10 10L 16 10L 16 106L 10 106Z"/>
          </g>
        </g>
      </g>
      <g id="g-root-cp_6_text-6_1uqjew915z10qp-stroke" data-item-order="-705540" transform="translate(530, 110)">
        <g id="cp_6_text-6_1uqjew915z10qp-stroke" fill="none" stroke-linecap="round" stroke-linejoin="round" stroke-miterlimit="4" stroke="#484848" stroke-width="1" stroke-opacity="1">
          <g>
            <path d="M 10 10L 16 10L 16 82L 10 82Z"/>
          </g>
        </g>
      </g>
      <g id="g-root-tx_comparar_18koxm115yzm6b-stroke" data-item-order="0" transform="translate(458, 242)"/>
      <g id="g-root-tx_crearvis_4mxvl515yznra-stroke" data-item-order="0" transform="translate(548, 146)"/>
      <g id="g-root-tx_4_1qbch0p15yzmyx-stroke" data-item-order="0" transform="translate(296, 314)"/>
      <g id="g-root-tx_normaliz_90vyg915yznyn-stroke" data-item-order="0" transform="translate(368, 314)"/>
      <g id="g-root-ic_rule_magyeh15zdnnm-stroke" data-item-order="0" transform="translate(692, 338)">
        <g id="ic_rule_magyeh15zdnnm-stroke" fill="none" stroke-linecap="round" stroke-linejoin="round" stroke-miterlimit="4" stroke="#484848" stroke-width="1" stroke-opacity="1">
          <g>
            <path d="M 10.998566 46.000824L 45.998325 10.999842L 56.999687 22.000818L 21.999924 57.001801ZM 18.029999 38.972L 23.029999 43.972M 22.029999 34.972L 26.059999 38.940002M 26.514 30.486L 31.514 35.486M 30.530001 26.472L 34.029999 29.972M 35 22L 40 27M 39 18L 43.029999 21.972"/>
          </g>
        </g>
      </g>
      <g id="g-root-tx_transfor_4l2gbt15yzoqw-stroke" data-item-order="0" transform="translate(368, 350)"/>
      <g id="g-root-ic_wave_18jfzft15yvf2l-stroke" data-item-order="0" transform="translate(872, 122)">
        <g id="ic_wave_18jfzft15yvf2l-stroke" fill="none" stroke-linecap="round" stroke-linejoin="round" stroke-miterlimit="4" stroke="#484848" stroke-width="1" stroke-opacity="1">
          <g>
            <path d="M 15 12L 53 12C 53 12 57 12 57 16L 57 52C 57 52 57 56 53 56L 15 56C 15 56 11 56 11 52L 11 16C 11 16 11 12 15 12M 11 22L 57 22M 18 16.5C 18.276142 16.5 18.5 16.723858 18.5 17C 18.5 17.276142 18.276142 17.5 18 17.5C 17.723858 17.5 17.5 17.276142 17.5 17C 17.5 16.723858 17.723858 16.5 18 16.5M 24 16.5C 24.276142 16.5 24.5 16.723858 24.5 17C 24.5 17.276142 24.276142 17.5 24 17.5C 23.723858 17.5 23.5 17.276142 23.5 17C 23.5 16.723858 23.723858 16.5 24 16.5M 30 16.5C 30.276142 16.5 30.5 16.723858 30.5 17C 30.5 17.276142 30.276142 17.5 30 17.5C 29.723858 17.5 29.5 17.276142 29.5 17C 29.5 16.723858 29.723858 16.5 30 16.5M 11 39L 57 39M 22 22L 22 56M 22 36L 24.93 30.142C 25.875435 28.249943 27.816975 27.062584 29.931995 27.083002C 32.047016 27.103422 33.965271 28.328043 34.874001 30.238001L 35.66 31.886C 36.528656 33.710938 38.323105 34.917175 40.340942 35.032539C 42.358776 35.147903 44.279015 34.154045 45.349998 32.440002L 45.349998 32.440002C 46.356514 30.828543 48.119568 29.846355 50.019516 29.838642C 51.919464 29.830929 53.690437 30.798769 54.709999 32.402L 57 36M 22 48.186001L 25.282 44.903999C 25.94331 44.242668 26.868998 43.917156 27.798683 44.019032C 28.728369 44.120903 29.561598 44.639153 30.064001 45.428001L 32.521999 49.290001C 33.074524 50.15926 34.024765 50.695053 35.054512 50.717957C 36.084255 50.740856 37.057377 50.247837 37.647999 49.403999L 39.330002 47.004002C 39.922462 46.156082 40.900993 45.662189 41.935036 45.689159C 42.969082 45.716125 43.920536 46.260353 44.467999 47.138L 44.556 47.278C 45.101749 48.150757 46.046951 48.693699 47.075806 48.725426C 48.10466 48.757149 49.081516 48.273476 49.68 47.436001L 49.68 47.436001C 50.235455 46.659454 51.119247 46.18396 52.073334 46.148346C 53.027424 46.112736 53.944206 46.521023 54.556 47.254002L 57 50.186001"/>
          </g>
        </g>
      </g>
      <g id="g-root-tx_3_1ltnjmx15yzoqr-stroke" data-item-order="0" transform="translate(206, 422)"/>
      <g id="g-root-tx_depurarv_deu1bd15yzoxt-stroke" data-item-order="0" transform="translate(278, 422)"/>
      <g id="g-root-ic_view_zp1u7d15z9ibk-stroke" data-item-order="0" transform="translate(602, 446)">
        <g id="ic_view_zp1u7d15z9ibk-stroke" fill="none" stroke-linecap="round" stroke-linejoin="round" stroke-miterlimit="4" stroke="#484848" stroke-width="1" stroke-opacity="1">
          <g>
            <path d="M 28.52 45.063999L 16 45.063999C 13.790861 45.063999 12 43.27314 12 41.063999L 12 16.048C 12 13.838861 13.790861 12.048 16 12.048L 46.018002 12.048C 48.227139 12.048 50.018002 13.838861 50.018002 16.048L 50.018002 29.666M 12 19.860001L 50.02 19.860001M 12 36.468002L 28.736 36.468002M 12 28.177999L 34.021999 28.177999M 27.530001 19.860001L 27.530001 45.063999M 38.662003 19.860001L 38.662003 28.177999M 42.155998 51.632C 47.618256 51.518284 51.955372 47.000343 51.846001 41.538002C 51.955372 36.075653 47.618256 31.557716 42.155998 31.444C 36.693745 31.557716 32.356628 36.075653 32.466 41.538002C 32.356628 47.000343 36.693745 51.518284 42.155998 51.632ZM 56 55.953999L 49 48.672001"/>
          </g>
        </g>
      </g>
      <g id="g-root-tx_aplicarf_4001515yzncy-stroke" data-item-order="0" transform="translate(278, 458)"/>
      <g id="g-root-tx_generard_hyedyh15yzm6d-stroke" data-item-order="0" transform="translate(548, 110)"/>
      <g id="g-root-ic_chec_924tgp15zdpn1-stroke" data-item-order="0" transform="translate(782, 230)">
        <g id="ic_chec_924tgp15zdpn1-stroke" fill="none" stroke-linecap="round" stroke-linejoin="round" stroke-miterlimit="4" stroke="#484848" stroke-width="1" stroke-opacity="1">
          <g>
            <path d="M 19 27L 38 27M 19 33L 31 33M 19 21L 33 21M 19 39L 27 39M 19 45L 27 45M 31 57L 13 57C 11.895431 57 11 56.104568 11 55L 11 13C 11 11.895431 11.895431 11 13 11L 39.585999 11C 40.11639 11.000113 40.625015 11.210901 41 11.586L 48.414001 19C 48.789101 19.374985 48.999886 19.88361 49 20.414L 49 27M 33 45C 33 51.627419 38.372581 57 45 57C 51.627419 57 57 51.627419 57 45C 57 38.372581 51.627419 33 45 33C 38.372581 33 33 38.372581 33 45ZM 50.348 41.512001L 44.537998 49.257999C 44.276516 49.605347 43.877514 49.822548 43.443855 49.853607C 43.010197 49.884663 42.584312 49.72654 42.276001 49.419998L 39.276001 46.419998"/>
          </g>
        </g>
      </g>
      <g id="g-root-tx_2_qqajop15yzncw-stroke" data-item-order="0" transform="translate(116, 530)"/>
      <g id="g-root-tx_integrar_1lselgp15yzmkm-stroke" data-item-order="0" transform="translate(188, 530)"/>
      <g id="g-root-ic_data_1uo1ijt15z5amd-stroke" data-item-order="0" transform="translate(512, 554)">
        <g id="ic_data_1uo1ijt15z5amd-stroke" fill="none" stroke-linecap="round" stroke-linejoin="round" stroke-miterlimit="4" stroke="#484848" stroke-width="1" stroke-opacity="1">
          <g>
            <path d="M 30.184 45.888L 15.219999 45.888C 12.889359 45.887997 11 43.998638 11 41.667999L 11 15.294001C 11 12.963358 12.889359 11.074 15.219999 11.073999L 46.869999 11.074C 49.200638 11.074 51.089996 12.963358 51.089996 15.294L 51.09 30.184M 11 19.313999L 51.09 19.313999M 11 36.826L 30.184 36.826M 11 28.084L 51.09 28.084M 27.374001 19.313999L 27.374001 45.888M 39.113998 19.313999L 39.113998 29.639999M 36.035999 37.461998C 36.034397 39.943348 40.727818 41.955246 46.518002 41.955246C 52.308182 41.955246 57.001602 39.943348 57 37.461998C 57.001602 34.980652 52.308182 32.968758 46.518002 32.968758C 40.727818 32.968758 36.034397 34.980652 36.035999 37.461998M 36.035999 37.459999L 36.035999 44.948002C 36.035999 47.425999 40.73 49.439999 46.518002 49.439999C 52.306 49.439999 57 47.428001 57 44.948002L 57 37.459999M 36.035999 44.948002L 36.035999 52.433998C 36.035999 54.914001 40.73 56.925999 46.518002 56.925999C 52.306 56.925999 57 54.916 57 52.433998L 57 44.948002"/>
          </g>
        </g>
      </g>
      <g id="g-root-tx_unificar_18gy33d15yzo5j-stroke" data-item-order="0" transform="translate(188, 566)"/>
      <g id="g-root-tx_6_1qd7wa115yzlzb-stroke" data-item-order="0" transform="translate(476, 110)"/>
      <g id="g-root-tx_1_mccgtl15yzmdq-stroke" data-item-order="0" transform="translate(26, 656)"/>
      <g id="g-root-tx_validarr_1czvynd15yzoju-stroke" data-item-order="0" transform="translate(458, 206)"/>
      <g id="g-root-tx_definira_18iticp15yzn5w-stroke" data-item-order="0" transform="translate(98, 656)"/>
      <g id="g-root-ic_2_1448v8p15z10qr-stroke" data-item-order="0" transform="translate(422, 662)">
        <g id="ic_2_1448v8p15z10qr-stroke" fill="none" stroke-linecap="round" stroke-linejoin="round" stroke-miterlimit="4" stroke="#484848" stroke-width="1" stroke-opacity="1">
          <g>
            <path d="M 11 34C 11 46.702549 21.297451 57 34 57C 46.702549 57 57 46.702549 57 34C 57 21.297451 46.702549 11 34 11C 21.297451 11 11 21.297451 11 34M 55.854 41.188C 52.793999 40.222 50.07 39.356003 49 39C 44.284 37.428001 47 30 40 30C 35.029438 30 31 34.029438 31 39C 31 46 40 43.029999 40 48C 40 50.240002 37.492001 54.048 35.284 56.964001M 34 23L 53.625999 23M 11.194 37L 25 37M 21.5 26C 21.5 26.276142 21.723858 26.5 22 26.5C 22.276142 26.5 22.5 26.276142 22.5 26C 22.5 25.723858 22.276142 25.5 22 25.5C 21.723858 25.5 21.5 25.723858 21.5 26M 34.5 16.5C 34.5 16.776142 34.723858 17 35 17C 35.276142 17 35.5 16.776142 35.5 16.5C 35.5 16.223858 35.276142 16 35 16C 34.723858 16 34.5 16.223858 34.5 16.5M 25.5 48C 25.5 48.276142 25.723858 48.5 26 48.5C 26.276142 48.5 26.5 48.276142 26.5 48C 26.5 47.723858 26.276142 47.5 26 47.5C 25.723858 47.5 25.5 47.723858 25.5 48"/>
          </g>
        </g>
      </g>
      <g id="g-root-tx_5_mdlezt15yzojw-stroke" data-item-order="0" transform="translate(386, 206)"/>
      <g id="g-root-tx_establec_zn6i3t15yznyl-stroke" data-item-order="0" transform="translate(98, 692)"/>
    </g>
  </g>
</svg>